<svg width="15" height="18" viewBox="0 0 15 18" fill="none" xmlns="http://www.w3.org/2000/svg">
<path d="M8 17.3333L7.79167 14.8333H7.58333C5.61111 14.8333 3.9375 14.1458 2.5625 12.7708C1.1875 11.3958 0.5 9.72222 0.5 7.75C0.5 5.77778 1.1875 4.10416 2.5625 2.72916C3.9375 1.35416 5.61111 0.666664 7.58333 0.666664C8.56944 0.666664 9.48958 0.850692 10.3438 1.21875C11.1979 1.5868 11.9479 2.09375 12.5938 2.73958C13.2396 3.38541 13.7465 4.13541 14.1146 4.98958C14.4826 5.84375 14.6667 6.76389 14.6667 7.75C14.6667 8.79166 14.4965 9.79166 14.1563 10.75C13.816 11.7083 13.3507 12.5972 12.7604 13.4167C12.1701 14.2361 11.4688 14.9792 10.6563 15.6458C9.84375 16.3125 8.95833 16.875 8 17.3333ZM9.66667 14.2917C10.6528 13.4583 11.4549 12.4826 12.0729 11.3646C12.691 10.2465 13 9.04166 13 7.75C13 6.23611 12.4757 4.95486 11.4271 3.90625C10.3785 2.85764 9.09722 2.33333 7.58333 2.33333C6.06944 2.33333 4.78819 2.85764 3.73958 3.90625C2.69097 4.95486 2.16667 6.23611 2.16667 7.75C2.16667 9.26389 2.69097 10.5451 3.73958 11.5937C4.78819 12.6424 6.06944 13.1667 7.58333 13.1667H9.66667V14.2917ZM7.5625 12.3125C7.79861 12.3125 8 12.2292 8.16667 12.0625C8.33333 11.8958 8.41667 11.6944 8.41667 11.4583C8.41667 11.2222 8.33333 11.0208 8.16667 10.8542C8 10.6875 7.79861 10.6042 7.5625 10.6042C7.32639 10.6042 7.125 10.6875 6.95833 10.8542C6.79167 11.0208 6.70833 11.2222 6.70833 11.4583C6.70833 11.6944 6.79167 11.8958 6.95833 12.0625C7.125 12.2292 7.32639 12.3125 7.5625 12.3125ZM6.95833 9.66666H8.20833C8.20833 9.25 8.25 8.95833 8.33333 8.79166C8.41667 8.625 8.68056 8.31944 9.125 7.875C9.375 7.625 9.58333 7.35416 9.75 7.0625C9.91667 6.77083 10 6.45833 10 6.125C10 5.41666 9.76042 4.88541 9.28125 4.53125C8.80208 4.17708 8.23611 4 7.58333 4C6.97222 4 6.45833 4.17014 6.04167 4.51041C5.625 4.85069 5.33333 5.26389 5.16667 5.75L6.33333 6.20833C6.40278 5.97222 6.53472 5.73958 6.72917 5.51041C6.92361 5.28125 7.20833 5.16666 7.58333 5.16666C7.95833 5.16666 8.23958 5.27083 8.42708 5.47916C8.61458 5.6875 8.70833 5.91666 8.70833 6.16666C8.70833 6.40277 8.63889 6.61458 8.5 6.80208C8.36111 6.98958 8.19444 7.18055 8 7.375C7.51389 7.79166 7.21875 8.12153 7.11458 8.36458C7.01042 8.60764 6.95833 9.04166 6.95833 9.66666Z" fill="white"/>
</svg>
