<svg width="80" height="80" viewBox="0 0 80 80" fill="none" xmlns="http://www.w3.org/2000/svg">
<rect width="80" height="80" rx="8" fill="#95FCE9"/>
<g clip-path="url(#clip0_2365_3574)">
<path d="M43.5409 41.5C43.5409 42.625 42.6259 43.54 41.5009 43.54H40.5409V45.25H39.4609V43.54H37.0009V42.46H41.5009C42.0304 42.46 42.4609 42.0295 42.4609 41.5C42.4609 40.9705 42.0304 40.54 41.5009 40.54H38.5009C37.3759 40.54 36.4624 39.625 36.4624 38.5C36.4624 37.375 37.3774 36.46 38.5009 36.46H39.4624V34.75H40.5424V36.46H43.0009V37.54H38.5009C37.9714 37.54 37.5409 37.9705 37.5409 38.5C37.5409 39.0295 37.9714 39.46 38.5009 39.46H41.5009C42.6259 39.46 43.5409 40.375 43.5409 41.5ZM50.8579 43.54L50.1814 45.1735L52.4314 47.4235L47.4244 52.4305L45.1744 50.1805L43.5409 50.857V54.04H36.4609V50.857L34.8259 50.1805L32.5759 52.4305L27.5689 47.4235L29.8189 45.1735L29.1424 43.54H25.9609V36.46H29.1424L29.8189 34.825L27.5689 32.575L32.5759 27.568L34.8259 29.818L36.4609 29.1415V25.96H43.5409V29.1415L45.1744 29.818L47.4244 27.568L52.4314 32.575L50.1814 34.825L50.8579 36.46H54.0409V43.54H50.8579ZM48.9079 45.4285L50.1379 42.46H52.9609V37.54H50.1379L48.9079 34.5715L50.9059 32.575L47.4259 29.0965L45.4309 31.093L42.4609 29.8645V27.04H37.5409V29.8645L34.5724 31.093L32.5759 29.0965L29.0974 32.575L31.0939 34.5715L29.8654 37.54H27.0409V42.46H29.8654L31.0939 45.4285L29.0974 47.4235L32.5759 50.9035L34.5724 48.9055L37.5409 50.1355V52.9585H42.4609V50.1355L45.4294 48.9055L47.4244 50.9035L50.9044 47.4235L48.9079 45.4285ZM40.0009 18.04C46.6039 18.04 52.6984 20.9125 56.8864 25.96H52.0009V27.04H58.5409V20.5H57.4609V24.967C53.0764 19.858 46.7959 16.96 40.0009 16.96C27.2959 16.96 16.9609 27.295 16.9609 40H18.0409C18.0409 27.8905 27.8914 18.04 40.0009 18.04ZM61.9609 40C61.9609 52.108 52.1104 61.96 40.0009 61.96C33.3979 61.96 27.3034 59.0875 23.1154 54.0415H28.0009V52.96H21.4609V59.5H22.5409V55.033C26.9254 60.142 33.2059 63.04 40.0009 63.04C52.7059 63.04 63.0409 52.7035 63.0409 40H61.9609Z" fill="#070B15"/>
</g>
<defs>
<clipPath id="clip0_2365_3574">
<rect width="48" height="48" fill="white" transform="translate(16 16)"/>
</clipPath>
</defs>
</svg>
