<svg width="80" height="80" viewBox="0 0 80 80" fill="none" xmlns="http://www.w3.org/2000/svg">
<rect width="80" height="80" rx="8" fill="#95FCE9"/>
<g clip-path="url(#clip0_2365_3556)">
<path d="M56.5009 61.54C53.9044 61.54 51.7594 59.566 51.4894 57.04H45.0124C44.7424 59.566 42.5989 61.54 40.0009 61.54C37.2214 61.54 34.9609 59.278 34.9609 56.5C34.9609 53.9035 36.9349 51.7585 39.4609 51.4885V45.0115C36.9349 44.7415 34.9609 42.598 34.9609 40C34.9609 37.4035 36.9349 35.2585 39.4609 34.9885V28.5115C37.1119 28.261 35.2414 26.389 34.9894 24.04H28.5124C28.2424 26.566 26.0974 28.54 23.5009 28.54C20.7214 28.54 18.4609 26.2795 18.4609 23.5C18.4609 20.7205 20.7214 18.46 23.5009 18.46C26.0974 18.46 28.2424 20.434 28.5124 22.96H34.9894C35.2594 20.434 37.4044 18.46 40.0009 18.46C42.7804 18.46 45.0409 20.7205 45.0409 23.5C45.0409 26.0965 43.0669 28.2415 40.5409 28.5115V34.9885C43.0669 35.2585 45.0409 37.4035 45.0409 40C45.0409 42.5965 43.0669 44.7415 40.5409 45.0115V51.4885C42.8899 51.739 44.7619 53.611 45.0124 55.9585H51.4894C51.7594 53.4325 53.9029 51.4585 56.5009 51.4585C59.2804 51.4585 61.5409 53.7205 61.5409 56.4985C61.5409 59.2765 59.2804 61.54 56.5009 61.54ZM56.5009 52.54C54.3169 52.54 52.5409 54.316 52.5409 56.5C52.5409 58.684 54.3169 60.46 56.5009 60.46C58.6849 60.46 60.4609 58.684 60.4609 56.5C60.4609 54.316 58.6849 52.54 56.5009 52.54ZM40.0009 52.54C37.8169 52.54 36.0409 54.316 36.0409 56.5C36.0409 58.684 37.8184 60.46 40.0009 60.46C42.1849 60.46 43.9609 58.684 43.9609 56.5C43.9609 54.316 42.1849 52.54 40.0009 52.54ZM40.0009 36.04C37.8169 36.04 36.0409 37.8175 36.0409 40C36.0409 42.184 37.8184 43.96 40.0009 43.96C42.1849 43.96 43.9609 42.184 43.9609 40C43.9609 37.816 42.1849 36.04 40.0009 36.04ZM40.0009 19.54C37.8169 19.54 36.0409 21.3175 36.0409 23.5C36.0409 25.6825 37.8169 27.46 40.0009 27.46C42.1849 27.46 43.9609 25.6825 43.9609 23.5C43.9609 21.3175 42.1849 19.54 40.0009 19.54ZM23.5009 19.54C21.3169 19.54 19.5409 21.316 19.5409 23.5C19.5409 25.684 21.3169 27.46 23.5009 27.46C25.6849 27.46 27.4609 25.684 27.4609 23.5C27.4609 21.316 25.6849 19.54 23.5009 19.54ZM23.5009 61.54C20.7214 61.54 18.4609 59.278 18.4609 56.5C18.4609 53.722 20.7214 51.46 23.5009 51.46C26.2804 51.46 28.5409 53.7205 28.5409 56.5C28.5409 59.2795 26.2804 61.54 23.5009 61.54ZM23.5009 52.54C21.3169 52.54 19.5409 54.316 19.5409 56.5C19.5409 58.684 21.3169 60.46 23.5009 60.46C25.6849 60.46 27.4609 58.684 27.4609 56.5C27.4609 54.316 25.6849 52.54 23.5009 52.54ZM56.5009 45.04C53.7214 45.04 51.4609 42.778 51.4609 40C51.4609 37.222 53.7229 34.96 56.5009 34.96C59.2789 34.96 61.5409 37.2205 61.5409 40C61.5409 42.7795 59.2804 45.04 56.5009 45.04ZM56.5009 36.04C54.3169 36.04 52.5409 37.8175 52.5409 40C52.5409 42.184 54.3169 43.96 56.5009 43.96C58.6849 43.96 60.4609 42.184 60.4609 40C60.4609 37.816 58.6849 36.04 56.5009 36.04ZM23.5009 45.04C20.7214 45.04 18.4609 42.778 18.4609 40C18.4609 37.222 20.7214 34.96 23.5009 34.96C26.2804 34.96 28.5409 37.2205 28.5409 40C28.5409 42.7795 26.2804 45.04 23.5009 45.04ZM23.5009 36.04C21.3169 36.04 19.5409 37.8175 19.5409 40C19.5409 42.184 21.3184 43.96 23.5009 43.96C25.6834 43.96 27.4609 42.184 27.4609 40C27.4609 37.816 25.6849 36.04 23.5009 36.04ZM56.5009 28.54C53.7214 28.54 51.4609 26.2795 51.4609 23.5C51.4609 20.7205 53.7214 18.46 56.5009 18.46C59.2804 18.46 61.5409 20.7205 61.5409 23.5C61.5409 26.2795 59.2804 28.54 56.5009 28.54ZM56.5009 19.54C54.3169 19.54 52.5409 21.3175 52.5409 23.5C52.5409 25.6825 54.3169 27.46 56.5009 27.46C58.6849 27.46 60.4609 25.684 60.4609 23.5C60.4609 21.316 58.6849 19.54 56.5009 19.54Z" fill="#070B15"/>
</g>
<defs>
<clipPath id="clip0_2365_3556">
<rect width="48" height="48" fill="white" transform="translate(16 16)"/>
</clipPath>
</defs>
</svg>
