<?xml version="1.0" encoding="utf-8"?>
<svg height="800" width="800" viewBox="-204.8 -341.3 1350 1370" xmlns="http://www.w3.org/2000/svg">
  <path d="M 1101.656 341.334 C 1101.656 -13.54 818.048 -301.22 468.2 -301.22 C 118.351 -301.22 -165.256 -13.54 -165.256 341.334 C -165.256 662.051 66.389 927.878 369.222 976.082 L 369.222 527.072 L 208.385 527.072 L 208.385 341.334 L 369.222 341.334 L 369.222 199.772 C 369.222 38.731 463.794 -50.223 608.489 -50.223 C 677.793 -50.223 750.286 -37.673 750.286 -37.673 L 750.286 120.455 L 670.409 120.455 C 591.72 120.455 567.179 169.987 567.179 220.802 L 567.179 341.334 L 742.863 341.334 L 714.778 527.072 L 567.178 527.072 L 567.178 976.082 C 870.009 927.878 1101.656 662.051 1101.656 341.334" fill="#fff" style=""/>
  <path d="M 714.778 527.072 L 742.863 341.334 L 567.178 341.334 L 567.178 220.801 C 567.178 169.987 591.72 120.455 670.409 120.455 L 750.286 120.455 L 750.286 -37.673 C 750.286 -37.673 677.793 -50.223 608.489 -50.223 C 463.794 -50.223 369.222 38.731 369.222 199.772 L 369.222 341.334 L 208.385 341.334 L 208.385 527.072 L 369.222 527.072 L 369.222 976.082 C 401.966 981.286 435.058 983.896 468.2 983.887 C 501.873 983.887 534.926 981.215 567.178 976.082 L 567.178 527.072 L 714.778 527.072" fill="#000" style=""/>
</svg>