<svg width="113" height="32" viewBox="0 0 113 32" fill="none" xmlns="http://www.w3.org/2000/svg">
<g clip-path="url(#clip0_359_195)">
<mask id="mask0_359_195" style="mask-type:luminance" maskUnits="userSpaceOnUse" x="0" y="0" width="113" height="32">
<path d="M112.953 0.5H0V31.3409H112.953V0.5Z" fill="white"/>
</mask>
<g mask="url(#mask0_359_195)">
<path d="M20.4652 12.7738C22.3649 12.7738 23.905 11.2624 23.905 9.39785C23.905 7.53334 22.3649 6.02185 20.4652 6.02185C18.5654 6.02185 17.0253 7.53334 17.0253 9.39785C17.0253 11.2624 18.5654 12.7738 20.4652 12.7738Z" fill="#E0E5F0"/>
<path d="M31.7888 12.7738C33.6885 12.7738 35.2287 11.2624 35.2287 9.39785C35.2287 7.53334 33.6885 6.02185 31.7888 6.02185C29.8891 6.02185 28.349 7.53334 28.349 9.39785C28.349 11.2624 29.8891 12.7738 31.7888 12.7738Z" fill="#E0E5F0"/>
<path d="M36.6752 18.296H5.22075C2.34199 18.296 0 15.9972 0 13.1719V5.6239C0 2.79854 2.34199 0.5 5.22075 0.5H36.6752C39.5539 0.5 41.8961 2.79854 41.8961 5.6239V13.1719C41.8961 15.9972 39.5539 18.296 36.6752 18.296ZM5.22075 3.26726C3.89679 3.26726 2.81956 4.3245 2.81956 5.6239V13.1719C2.81956 14.4714 3.89679 15.5287 5.22075 15.5287H36.6752C37.9992 15.5287 39.0765 14.4714 39.0765 13.1719V5.6239C39.0765 4.3245 37.9992 3.26726 36.6752 3.26726H5.22075Z" fill="#E0E5F0"/>
<path d="M34.0454 31.3409H7.85071C5.74996 31.3409 4.04095 29.6636 4.04095 27.6018V24.7985C4.04095 22.7368 5.74996 21.0595 7.85071 21.0595H34.0454C36.1462 21.0595 37.8552 22.7368 37.8552 24.7985V27.6018C37.8552 29.6636 36.1462 31.3409 34.0454 31.3409ZM7.85071 23.8268C7.30476 23.8268 6.86053 24.2628 6.86053 24.7985V27.6018C6.86053 28.1378 7.30476 28.5737 7.85071 28.5737H34.0454C34.5914 28.5737 35.0356 28.1378 35.0356 27.6018V24.7985C35.0356 24.2628 34.5914 23.8268 34.0454 23.8268H7.85071Z" fill="#E0E5F0"/>
<path d="M54.379 7.31116H63.3766C64.8466 7.31116 66.0331 7.71696 66.9352 8.52873C67.8379 9.34051 68.2888 10.4105 68.2888 11.7387V14.1002C68.2888 15.4942 67.8164 16.6134 66.8729 17.4578C65.9287 18.3026 64.6882 18.7247 63.1511 18.7247H57.3113V24.5296H54.379V7.31116ZM63.101 16.2156C63.7856 16.2156 64.333 16.0108 64.7423 15.6006C65.1517 15.1909 65.3566 14.6578 65.3566 14.0017V11.8126C65.3566 11.2061 65.1725 10.7222 64.8049 10.3613C64.4372 10.0008 63.9443 9.82018 63.3265 9.82018H57.3113V16.2156H63.101Z" fill="#E0E5F0"/>
<path d="M81.7314 20.3178H74.7639L73.1352 24.5732H70.1022L76.9192 7.35464H78.2477C79.15 7.35464 79.7765 7.78927 80.1275 8.6584L86.3932 24.5732H83.3356L81.7314 20.3178ZM75.5913 17.9071H80.9045L78.2729 10.9214H78.2477L75.5913 17.9071Z" fill="#E0E5F0"/>
<path d="M90.7091 13.9857H93.5806V24.5953H90.7091V13.9857Z" fill="#E0E5F0"/>
<path d="M90.7091 9.34396H93.5806V11.9964H90.7091V9.34396Z" fill="#E0E5F0"/>
<path d="M103.105 9.7956H97.5414V7.31119H111.602V9.7956H106.038V24.5296H103.105V9.7956Z" fill="#E0E5F0"/>
<path d="M5.74783 24.9268H1.3562V27.745H5.74783V24.9268Z" fill="#E0E5F0"/>
<path d="M44.7657 7.85196H40.3741V10.6701H44.7657V7.85196Z" fill="#E0E5F0"/>
</g>
</g>
<defs>
<clipPath id="clip0_359_195">
<rect width="113" height="31" fill="white" transform="translate(0 0.5)"/>
</clipPath>
</defs>
</svg>
