<svg width="122" height="34" viewBox="0 0 122 34" fill="none" xmlns="http://www.w3.org/2000/svg">
  <style>
    <!-- @keyframes blink {
       40%, 60% {
        opacity: 1;
      }
       50% {
        opacity: 0;
      }
    } -->
    @keyframes eyeShrink {
      0%, 100% {
        transform: scale(1);
      }
      50% {
        transform: scale(0);
      }
    }
    #left-eye, #right-eye {
      animation: eyeShrink 2s infinite;
      transform-origin: center;
      transform-box: fill-box;
    }
  </style>
  <g mask="url(#mask0_132_6291)">
    <path id="left-eye" d="M22.0951 13.4617C24.1462 13.4617 25.8089 11.8039 25.8089 9.75895C25.8089 7.714 24.1462 6.05624 22.0951 6.05624C20.0441 6.05624 18.3813 7.714 18.3813 9.75895C18.3813 11.8039 20.0441 13.4617 22.0951 13.4617Z" fill="white"/>
    <path id="right-eye" d="M34.3207 13.4617C36.3717 13.4617 38.0345 11.8039 38.0345 9.75895C38.0345 7.714 36.3717 6.05624 34.3207 6.05624C32.2696 6.05624 30.6069 7.714 30.6069 9.75895C30.6069 11.8039 32.2696 13.4617 34.3207 13.4617Z" fill="white"/>
    <path d="M39.5962 19.5182H5.63656C2.52852 19.5182 0 16.997 0 13.8982V5.61976C0 2.52098 2.52852 0 5.63656 0H39.5962C42.7042 0 45.233 2.52098 45.233 5.61976V13.8982C45.233 16.997 42.7042 19.5182 39.5962 19.5182ZM5.63656 3.03505C4.20716 3.03505 3.04413 4.19462 3.04413 5.61976V13.8982C3.04413 15.3235 4.20716 16.4831 5.63656 16.4831H39.5962C41.0257 16.4831 42.1888 15.3235 42.1888 13.8982V5.61976C42.1888 4.19462 41.0257 3.03505 39.5962 3.03505H5.63656Z" fill="white"/>
    <path d="M36.757 33.8254H8.47598C6.20791 33.8254 4.36279 31.9858 4.36279 29.7245V26.65C4.36279 24.3887 6.20791 22.5491 8.47598 22.5491H36.757C39.0251 22.5491 40.8702 24.3887 40.8702 26.65V29.7245C40.8702 31.9858 39.0251 33.8254 36.757 33.8254ZM8.47598 25.5842C7.88655 25.5842 7.40694 26.0624 7.40694 26.65V29.7245C7.40694 30.3124 7.88655 30.7905 8.47598 30.7905H36.757C37.3464 30.7905 37.826 30.3124 37.826 29.7245V26.65C37.826 26.0624 37.3464 25.5842 36.757 25.5842H8.47598Z" fill="white"/>
    <path d="M58.7101 7.47031H68.4243C70.0114 7.47031 71.2923 7.91538 72.2663 8.80571C73.2408 9.69605 73.7278 10.8696 73.7278 12.3264V14.9163C73.7278 16.4452 73.2177 17.6728 72.199 18.5989C71.1796 19.5255 69.8404 19.9884 68.1809 19.9884H61.8759V26.3551H58.7101V7.47031ZM68.1267 17.2364C68.8658 17.2364 69.4568 17.0118 69.8987 16.562C70.3408 16.1126 70.562 15.5279 70.562 14.8083V12.4074C70.562 11.7421 70.3632 11.2114 69.9664 10.8156C69.5694 10.4202 69.0372 10.2221 68.3702 10.2221H61.8759V17.2364H68.1267Z" fill="white"/>
    <path d="M88.241 21.7356H80.7186L78.9601 26.4029H75.6856L83.0455 7.518H84.4798C85.454 7.518 86.1304 7.99469 86.5093 8.94793L93.274 26.4029H89.9729L88.241 21.7356ZM81.6118 19.0916H87.3482L84.507 11.4299H84.4798L81.6118 19.0916Z" fill="white"/>
    <path d="M97.9337 14.7907H101.034V26.4271H97.9337V14.7907Z" fill="white"/>
    <path d="M97.9337 9.69982H101.034V12.6089H97.9337V9.69982Z" fill="white"/>
    <path d="M111.317 10.1952H105.31V7.47034H120.49V10.1952H114.483V26.3551H111.317V10.1952Z" fill="white"/>
    <path d="M6.20564 26.7907H1.46423V29.8816H6.20564V26.7907Z" fill="white"/>
    <path d="M48.3311 8.06345H43.5897V11.1544H48.3311V8.06345Z" fill="white"/>
  </g>
  <defs>
    <clipPath id="clip0_132_6291">
      <rect width="121.949" height="33.8255" fill="white"/>
    </clipPath>
  </defs>
</svg>