<svg width="16" height="16" viewBox="0 0 16 16" fill="none" xmlns="http://www.w3.org/2000/svg">
<g clip-path="url(#clip0_483_111)">
<path d="M8 16C12.4183 16 16 12.4183 16 8C16 3.58172 12.4183 0 8 0C3.58172 0 0 3.58172 0 8C0 12.4183 3.58172 16 8 16Z" fill="url(#paint0_linear_483_111)"/>
<path d="M7.75837 7.25877C8.16556 7.25877 8.49563 6.92865 8.49563 6.52146C8.49563 6.11427 8.16556 5.78419 7.75837 5.78419C7.35118 5.78419 7.0211 6.11427 7.0211 6.52146C7.0211 6.92865 7.35118 7.25877 7.75837 7.25877Z" fill="black"/>
<path d="M10.1855 7.25877C10.5927 7.25877 10.9227 6.92865 10.9227 6.52146C10.9227 6.11427 10.5927 5.78419 10.1855 5.78419C9.77828 5.78419 9.44817 6.11427 9.44817 6.52146C9.44817 6.92865 9.77828 7.25877 10.1855 7.25877Z" fill="black"/>
<path d="M11.2328 8.46474H4.49092C3.87388 8.46474 3.3719 7.96273 3.3719 7.34569V5.69729C3.3719 5.08025 3.87388 4.57828 4.49092 4.57828H11.2328C11.8498 4.57828 12.3518 5.08025 12.3518 5.69729V7.34569C12.3518 7.96273 11.8498 8.46474 11.2328 8.46474ZM4.49092 5.18264C4.20714 5.18264 3.97626 5.41351 3.97626 5.69729V7.34569C3.97626 7.62951 4.20714 7.86038 4.49092 7.86038H11.2328C11.5166 7.86038 11.7475 7.62951 11.7475 7.34569V5.69729C11.7475 5.41351 11.5166 5.18264 11.2328 5.18264H4.49092Z" fill="black"/>
<path d="M10.6691 11.3136H5.05462C4.60437 11.3136 4.23805 10.9473 4.23805 10.497V9.88484C4.23805 9.43458 4.60437 9.06827 5.05462 9.06827H10.6691C11.1194 9.06827 11.4858 9.43458 11.4858 9.88484V10.497C11.4858 10.9473 11.1194 11.3136 10.6691 11.3136ZM5.05462 9.67259C4.93759 9.67259 4.84237 9.7678 4.84237 9.88484V10.497C4.84237 10.6141 4.93759 10.7093 5.05462 10.7093H10.6691C10.7862 10.7093 10.8814 10.6141 10.8814 10.497V9.88484C10.8814 9.7678 10.7862 9.67259 10.6691 9.67259H5.05462Z" fill="black"/>
<path d="M4.60388 9.91287H3.66258V10.5283H4.60388V9.91287Z" fill="black"/>
<path d="M12.967 6.18387H12.0257V6.79933H12.967V6.18387Z" fill="black"/>
</g>
<defs>
<linearGradient id="paint0_linear_483_111" x1="8" y1="0" x2="8" y2="16" gradientUnits="userSpaceOnUse">
<stop stop-color="#E1E1E1"/>
<stop offset="1" stop-color="#BEBEBE"/>
</linearGradient>
<clipPath id="clip0_483_111">
<rect width="16" height="16" fill="white"/>
</clipPath>
</defs>
</svg>
