<svg width="20" height="20" viewBox="0 0 20 20" fill="none" xmlns="http://www.w3.org/2000/svg">
<rect width="20" height="20" rx="10" fill="black"/>
<path d="M9.29358 8.94599C9.89581 8.94599 10.384 8.45694 10.384 7.85367C10.384 7.2504 9.89581 6.76135 9.29358 6.76135C8.69135 6.76135 8.20312 7.2504 8.20312 7.85367C8.20312 8.45694 8.69135 8.94599 9.29358 8.94599Z" fill="white"/>
<path d="M12.8834 8.94599C13.4857 8.94599 13.9739 8.45694 13.9739 7.85367C13.9739 7.2504 13.4857 6.76135 12.8834 6.76135C12.2812 6.76135 11.793 7.2504 11.793 7.85367C11.793 8.45694 12.2812 8.94599 12.8834 8.94599Z" fill="white"/>
<path d="M14.435 10.7327H4.46362C3.55103 10.7327 2.80859 9.98892 2.80859 9.07477V6.63259C2.80859 5.71843 3.55103 4.97473 4.46362 4.97473H14.435C15.3475 4.97473 16.0901 5.71843 16.0901 6.63259V9.07477C16.0901 9.98892 15.3475 10.7327 14.435 10.7327ZM4.46362 5.87009C4.04391 5.87009 3.70242 6.21216 3.70242 6.63259V9.07477C3.70242 9.49524 4.04391 9.83732 4.46362 9.83732H14.435C14.8547 9.83732 15.1962 9.49524 15.1962 9.07477V6.63259C15.1962 6.21216 14.8547 5.87009 14.435 5.87009H4.46362Z" fill="white"/>
<path d="M13.6015 14.9537H5.29757C4.63161 14.9537 4.08984 14.411 4.08984 13.7439V12.8369C4.08984 12.1698 4.63161 11.6271 5.29757 11.6271H13.6015C14.2675 11.6271 14.8093 12.1698 14.8093 12.8369V13.7439C14.8093 14.411 14.2675 14.9537 13.6015 14.9537ZM5.29757 12.5224C5.1245 12.5224 4.98368 12.6635 4.98368 12.8369V13.7439C4.98368 13.9173 5.1245 14.0583 5.29757 14.0583H13.6015C13.7746 14.0583 13.9154 13.9173 13.9154 13.7439V12.8369C13.9154 12.6635 13.7746 12.5224 13.6015 12.5224H5.29757Z" fill="white"/>
<path d="M4.63047 12.8781H3.23828V13.7899H4.63047V12.8781Z" fill="white"/>
<path d="M17.0016 7.35355H15.6094V8.26538H17.0016V7.35355Z" fill="white"/>
</svg>
