<svg width="80" height="80" viewBox="0 0 80 80" fill="none" xmlns="http://www.w3.org/2000/svg">
<rect width="80" height="80" rx="8" fill="#95FCE9"/>
<g clip-path="url(#clip0_2365_3565)">
<path d="M17.5018 36.04H47.5018C47.8003 36.04 48.0418 35.7985 48.0418 35.5V20.5C48.0418 20.2015 47.8003 19.96 47.5018 19.96H17.5018C17.2033 19.96 16.9618 20.2015 16.9618 20.5V35.5C16.9618 35.7985 17.2033 36.04 17.5018 36.04ZM18.0418 31.594C19.7908 31.8355 21.1663 33.211 21.4078 34.96H18.0418V31.594ZM18.0418 30.5155V25.4845C20.3848 25.231 22.2328 23.383 22.4863 21.04H42.5158C42.7693 23.383 44.6188 25.231 46.9618 25.486V30.5155C44.6188 30.7705 42.7708 32.6185 42.5158 34.9615H22.4863C22.2328 32.617 20.3848 30.769 18.0418 30.5155ZM43.5973 34.96C43.8388 33.2125 45.2128 31.837 46.9618 31.594V34.96H43.5973ZM46.9618 24.406C45.2128 24.1645 43.8388 22.789 43.5973 21.04H46.9618V24.406ZM21.4078 21.04C21.1663 22.7875 19.7893 24.1645 18.0418 24.406V21.04H21.4078ZM32.5018 33.04C35.2813 33.04 37.5418 30.7795 37.5418 28C37.5418 25.2205 35.2813 22.96 32.5018 22.96C29.7223 22.96 27.4618 25.2205 27.4618 28C27.4618 30.7795 29.7223 33.04 32.5018 33.04ZM32.5018 24.04C34.6858 24.04 36.4618 25.8175 36.4618 28C36.4618 30.1825 34.6843 31.96 32.5018 31.96C30.3193 31.96 28.5418 30.184 28.5418 28C28.5418 25.816 30.3178 24.04 32.5018 24.04ZM62.5018 43.96H32.5018C32.2033 43.96 31.9618 44.2015 31.9618 44.5V59.5C31.9618 59.7985 32.2033 60.04 32.5018 60.04H62.5018C62.8003 60.04 63.0418 59.7985 63.0418 59.5V44.5C63.0418 44.2015 62.8003 43.96 62.5018 43.96ZM61.9618 48.4045C60.2143 48.163 58.8388 46.789 58.5973 45.04H61.9618V48.4045ZM61.9618 49.486V54.514C59.6203 54.769 57.7708 56.617 57.5158 58.96H37.4863C37.2313 56.617 35.3833 54.769 33.0403 54.514V49.486C35.3833 49.2325 37.2313 47.383 37.4863 45.04H57.5158C57.7708 47.383 59.6188 49.231 61.9618 49.486ZM36.4078 45.04C36.1663 46.789 34.7908 48.163 33.0418 48.4045V45.04H36.4078ZM33.0418 55.5955C34.7893 55.837 36.1648 57.211 36.4078 58.96H33.0418V55.5955ZM58.5973 58.96C58.8388 57.2125 60.2128 55.837 61.9618 55.5955V58.96H58.5973ZM47.5018 46.96C44.7223 46.96 42.4618 49.222 42.4618 52C42.4618 54.778 44.7238 57.04 47.5018 57.04C50.2798 57.04 52.5418 54.778 52.5418 52C52.5418 49.222 50.2813 46.96 47.5018 46.96ZM47.5018 55.96C45.3178 55.96 43.5418 54.184 43.5418 52C43.5418 49.816 45.3178 48.04 47.5018 48.04C49.6858 48.04 51.4618 49.816 51.4618 52C51.4618 54.184 49.6858 55.96 47.5018 55.96ZM18.8068 51.46H28.0018V52.5415H18.8068L22.3843 56.119L21.6208 56.884L16.7383 52L21.6208 47.1175L22.3843 47.8825L18.8068 51.46ZM61.1983 28.54H52.0018V27.46H61.1983L57.6193 23.881L58.3843 23.1175L63.2653 28L58.3843 32.881L57.6193 32.1175L61.1983 28.54Z" fill="#070B15"/>
</g>
<defs>
<clipPath id="clip0_2365_3565">
<rect width="48" height="48" fill="white" transform="translate(16 16)"/>
</clipPath>
</defs>
</svg>
