<?xml version="1.0" encoding="utf-8"?>
<svg width="1000px" height="1000px" viewBox="0 0 1000 1000" version="1.1" xmlns="http://www.w3.org/2000/svg">
  <title>Artboard</title>
  <desc>Created with Sketch.</desc>
  <g id="Artboard" stroke="none" stroke-width="1" fill="none" fill-rule="evenodd" style="" transform="matrix(1.102468, 0, 0, 1.102468, -8.87014, -53.8979)">
    <path d="M 70.253 473.875 C 313.162 368.044 475.14 298.273 556.186 264.563 C 787.588 168.315 835.671 151.596 867.011 151.044 C 873.904 150.922 889.316 152.631 899.3 160.731 C 907.73 167.572 910.049 176.812 911.159 183.297 C 912.269 189.782 913.651 204.555 912.552 216.099 C 900.012 347.855 845.753 667.594 818.149 815.163 C 806.469 877.605 783.47 898.542 761.204 900.591 C 712.816 905.043 676.072 868.612 629.205 837.891 C 555.869 789.817 514.438 759.892 443.252 712.981 C 360.984 658.768 414.315 628.971 461.199 580.275 C 473.469 567.532 686.669 373.61 690.795 356.018 C 691.312 353.818 691.791 345.617 686.918 341.286 C 682.046 336.956 674.855 338.436 669.666 339.614 C 662.311 341.284 545.154 418.72 318.197 571.922 C 284.942 594.757 254.822 605.883 227.834 605.3 C 198.083 604.658 140.854 588.479 98.309 574.649 C 46.127 557.687 4.653 548.719 8.265 519.911 C 10.146 504.906 30.809 489.561 70.253 473.875 Z" id="Path-3" style="fill: rgb(242, 242, 251);"/>
  </g>
</svg>