<svg width="80" height="80" viewBox="0 0 80 80" fill="none" xmlns="http://www.w3.org/2000/svg">
<rect width="80" height="80" rx="8" fill="#95FCE9"/>
<g clip-path="url(#clip0_2744_3580)">
<path d="M42.2509 46.75C42.2509 47.806 41.5219 48.685 40.5409 48.928V52C40.5409 52.2985 40.2994 52.54 40.0009 52.54C39.7024 52.54 39.4609 52.2985 39.4609 52V48.928C38.4799 48.685 37.7509 47.806 37.7509 46.75C37.7509 45.508 38.7589 44.5 40.0009 44.5C41.2429 44.5 42.2509 45.508 42.2509 46.75ZM55.5409 47.5C55.5409 56.0695 48.5704 63.04 40.0009 63.04C31.4329 63.04 24.4609 56.0695 24.4609 47.5C24.4609 41.8765 27.4744 36.955 31.9609 34.2265V25C31.9609 20.566 35.5669 16.96 40.0009 16.96C44.4334 16.96 48.0409 20.566 48.0409 25H46.9609C46.9609 21.1615 43.8394 18.04 40.0009 18.04C36.1624 18.04 33.0409 21.1615 33.0409 25V33.6265C35.1379 32.5705 37.4974 31.9615 40.0009 31.9615C48.5704 31.96 55.5409 38.932 55.5409 47.5ZM54.4609 47.5C54.4609 39.5275 47.9749 33.04 40.0009 33.04C32.0269 33.04 25.5409 39.5275 25.5409 47.5C25.5409 55.4725 32.0284 61.96 40.0009 61.96C47.9734 61.96 54.4609 55.4725 54.4609 47.5Z" fill="#070B15"/>
</g>
<defs>
<clipPath id="clip0_2744_3580">
<rect width="48" height="48" fill="white" transform="translate(16 16)"/>
</clipPath>
</defs>
</svg>
