<svg width="20" height="20" viewBox="0 0 20 20" fill="none" xmlns="http://www.w3.org/2000/svg">
<g clip-path="url(#clip0_2365_3355)">
<path d="M10 20C15.5417 20 20 15.5417 20 10C20 4.4583 15.5417 0 10 0C4.4583 0 0 4.4583 0 10C0 15.5417 4.4583 20 10 20Z" fill="#1E1E1E"/>
<path d="M12.7502 11.5832C12.7502 10.1249 11.8752 9.6249 10.1253 9.4166C8.87528 9.2499 8.62528 8.9166 8.62528 8.3332C8.62528 7.7498 9.04198 7.3749 9.87527 7.3749C10.6253 7.3749 11.042 7.6249 11.2503 8.2499C11.292 8.3749 11.417 8.4582 11.542 8.4582H12.2085C12.3752 8.4582 12.5002 8.3332 12.5002 8.1666V8.1249C12.3335 7.2082 11.5836 6.49989 10.6253 6.41659V5.41659C10.6253 5.24989 10.5003 5.12489 10.292 5.08319H9.66697C9.50027 5.08319 9.37527 5.20819 9.33357 5.41659V6.37489C8.08358 6.54159 7.29199 7.3749 7.29199 8.4166C7.29199 9.7916 8.12528 10.3332 9.87527 10.5416C11.042 10.7499 11.417 10.9999 11.417 11.6666C11.417 12.3333 10.8336 12.7916 10.042 12.7916C8.95858 12.7916 8.58358 12.3332 8.45858 11.7082C8.41698 11.5416 8.29198 11.4582 8.16698 11.4582H7.45859C7.29199 11.4582 7.16699 11.5832 7.16699 11.7499V11.7916C7.33359 12.8332 8.00028 13.5832 9.37527 13.7916V14.7916C9.37527 14.9582 9.50027 15.0832 9.70857 15.1249H10.3336C10.5003 15.1249 10.6253 14.9999 10.667 14.7916V13.7916C11.9169 13.5832 12.7502 12.7082 12.7502 11.5832Z" fill="white"/>
<path d="M7.87484 15.9584C4.62484 14.7918 2.95814 11.1668 4.16654 7.95841C4.79154 6.20841 6.16654 4.87511 7.87484 4.25011C8.04154 4.16681 8.12484 4.04181 8.12484 3.83341V3.25011C8.12484 3.08341 8.04154 2.95841 7.87484 2.91681C7.83314 2.91681 7.74984 2.91681 7.70814 2.95841C3.74984 4.20841 1.58314 8.41681 2.83314 12.3751C3.58314 14.7084 5.37484 16.5001 7.70814 17.2501C7.87484 17.3334 8.04154 17.2501 8.08314 17.0834C8.12484 17.0418 8.12484 17.0001 8.12484 16.9168V16.3334C8.12484 16.2084 7.99984 16.0418 7.87484 15.9584ZM12.2915 2.95841C12.1248 2.87511 11.9581 2.95841 11.9165 3.12511C11.8748 3.16681 11.8748 3.20841 11.8748 3.29181V3.87511C11.8748 4.04181 11.9998 4.20841 12.1248 4.29181C15.3748 5.45841 17.0415 9.08341 15.8331 12.2918C15.2081 14.0418 13.8331 15.3751 12.1248 16.0001C11.9581 16.0834 11.8748 16.2084 11.8748 16.4168V17.0001C11.8748 17.1668 11.9581 17.2918 12.1248 17.3334C12.1665 17.3334 12.2498 17.3334 12.2915 17.2918C16.2498 16.0418 18.4165 11.8334 17.1665 7.87511C16.4165 5.50011 14.5831 3.70841 12.2915 2.95841Z" fill="white"/>
</g>
<defs>
<clipPath id="clip0_2365_3355">
<rect width="20" height="20" fill="white"/>
</clipPath>
</defs>
</svg>
