<svg width="17" height="16" viewBox="0 0 17 16" fill="none" xmlns="http://www.w3.org/2000/svg">
<g clip-path="url(#clip0_483_80)">
<path d="M8.5 16C12.9183 16 16.5 12.4183 16.5 8C16.5 3.58172 12.9183 0 8.5 0C4.08172 0 0.5 3.58172 0.5 8C0.5 12.4183 4.08172 16 8.5 16Z" fill="#50AF95"/>
<path fill-rule="evenodd" clip-rule="evenodd" d="M4.65386 3.38902L2.43154 8.05696C2.41421 8.09257 2.42208 8.13536 2.451 8.16254L8.45281 13.9138C8.48827 13.9478 8.54413 13.9478 8.57959 13.9138L14.5815 8.16286C14.6103 8.13575 14.6182 8.09297 14.6009 8.05735L12.3786 3.38941C12.364 3.35742 12.3319 3.33686 12.2967 3.33693H4.73644C4.70106 3.33654 4.66875 3.35695 4.65386 3.38902Z" fill="white"/>
<path fill-rule="evenodd" clip-rule="evenodd" d="M9.28728 8.53633C9.24426 8.53956 9.0216 8.55279 8.52497 8.55279C8.13007 8.55279 7.84957 8.54097 7.75124 8.53633C6.2248 8.46919 5.08547 8.20343 5.08547 7.88535C5.08547 7.56719 6.2248 7.30182 7.75124 7.23358V8.27166C7.85107 8.27883 8.13684 8.29577 8.53183 8.29577C9.00584 8.29577 9.24316 8.276 9.28586 8.27206V7.23429C10.8091 7.30221 11.9459 7.56789 11.9459 7.88535C11.9459 8.20272 10.8094 8.46849 9.28586 8.53593L9.28728 8.53633ZM9.28728 7.12698V6.19802H11.413V4.7815H5.62551V6.19802H7.75084V7.12658C6.02333 7.20593 4.72421 7.54812 4.72421 7.95823C4.72421 8.36826 6.02333 8.71014 7.75084 8.7898V11.7666H9.28697V8.78877C11.0105 8.70935 12.3075 8.36755 12.3075 7.95784C12.3075 7.54812 11.0116 7.20632 9.28697 7.12658L9.28728 7.12698Z" fill="#50AF95"/>
</g>
<defs>
<clipPath id="clip0_483_80">
<rect width="16" height="16" fill="white" transform="translate(0.5)"/>
</clipPath>
</defs>
</svg>
